<?xml version="1.0" standalone="no"?>
<!DOCTYPE svg PUBLIC "-//W3C//DTD SVG 20010904//EN"
 "http://www.w3.org/TR/2001/REC-SVG-20010904/DTD/svg10.dtd">
<svg version="1.0" xmlns="http://www.w3.org/2000/svg"
 width="420.000000pt" height="420.000000pt" viewBox="0 0 420.000000 420.000000"
 preserveAspectRatio="xMidYMid meet">
<metadata>
Created by potrace 1.14, written by Peter Selinger 2001-2017
</metadata>
<g transform="translate(0.000000,420.000000) scale(0.100000,-0.100000)"
fill="#000000" stroke="none">
<path d="M1805 3313 c-132 -22 -229 -59 -337 -129 -40 -25 -74 -50 -76 -55 -2
-5 -8 -9 -14 -9 -9 0 -50 -36 -112 -96 -11 -11 -37 -40 -56 -63 -19 -24 -41
-49 -47 -56 -7 -8 -13 -18 -13 -24 0 -6 -4 -11 -9 -11 -4 0 -31 -45 -60 -100
-28 -55 -48 -100 -45 -100 4 0 1 -7 -6 -15 -7 -8 -9 -15 -6 -15 4 0 2 -9 -3
-19 -6 -10 -13 -34 -15 -52 -3 -19 -8 -52 -12 -74 -4 -22 -7 -109 -7 -193 1
-142 3 -156 26 -200 35 -66 49 -120 34 -129 -36 -23 -48 -95 -35 -196 17 -127
20 -141 28 -158 5 -9 7 -18 5 -21 -3 -3 2 -27 10 -54 8 -27 15 -50 15 -51 0
-2 -35 -3 -79 -3 -72 0 -80 -2 -106 -27 l-27 -28 6 -160 c3 -88 9 -198 12
-245 3 -47 7 -119 9 -160 9 -204 18 -377 20 -390 2 -17 -23 -61 -42 -73 -7 -4
-13 -15 -13 -22 0 -8 -4 -15 -10 -15 -5 0 -10 -7 -10 -15 0 -8 -3 -15 -7 -15
-9 0 -57 -82 -85 -143 -9 -20 -15 -37 -12 -37 3 0 0 -8 -5 -18 -10 -19 -18
-51 -26 -109 l-5 -33 1391 0 1391 0 -7 46 c-12 89 -97 272 -158 341 -25 28
-25 22 -2 453 2 30 6 127 10 215 4 88 9 168 10 177 4 17 7 132 6 181 -1 17
-12 38 -27 52 -24 22 -36 25 -102 25 -67 0 -73 2 -67 18 4 9 9 26 11 37 2 11
6 31 9 45 40 184 47 258 30 324 -13 51 -37 78 -60 70 -20 -8 -13 16 22 73 30
49 56 128 70 212 7 38 9 196 3 246 -8 81 -66 265 -82 265 -5 0 -8 5 -8 11 0
20 -88 143 -139 194 -81 82 -119 115 -130 115 -6 0 -11 4 -11 9 0 5 -13 14
-30 21 -16 7 -30 16 -30 21 0 5 -11 11 -25 15 -14 3 -25 10 -25 16 0 5 -4 6
-10 3 -5 -3 -10 -1 -10 4 0 6 -4 11 -9 11 -5 0 -30 10 -57 22 -27 12 -51 23
-54 23 -3 1 -25 7 -50 15 -110 33 -215 46 -286 35 -23 -3 -62 -19 -86 -35 -35
-24 -44 -26 -51 -14 -4 7 -15 14 -22 14 -8 0 -15 4 -15 8 0 8 -49 28 -92 38
-29 7 -166 12 -193 7z"/>
</g>
</svg>
